<svg xmlns="http://www.w3.org/2000/svg" viewBox="0 0 32 32" width="32" height="32">
  <defs>
    <linearGradient id="bg" x1="0%" y1="0%" x2="100%" y2="100%">
      <stop offset="0%" style="stop-color:#3b82f6;stop-opacity:1" />
      <stop offset="100%" style="stop-color:#1e40af;stop-opacity:1" />
    </linearGradient>
  </defs>
  
  <!-- Background circle -->
  <circle cx="16" cy="16" r="14" fill="url(#bg)" stroke="#1e293b" stroke-width="2"/>
  
  <!-- Clipboard background -->
  <rect x="8" y="6" width="16" height="20" rx="2" fill="white" stroke="#e2e8f0" stroke-width="1"/>
  
  <!-- Clipboard clip -->
  <rect x="13" y="4" width="6" height="4" rx="1" fill="#64748b"/>
  <rect x="14" y="5" width="4" height="2" rx="0.5" fill="white"/>
  
  <!-- Todo items -->
  <!-- Item 1 - completed -->
  <rect x="10" y="10" width="2" height="2" rx="1" fill="#10b981"/>
  <path d="M10.5 11.5L11 12L12.5 10.5" stroke="white" stroke-width="1.5" fill="none" stroke-linecap="round" stroke-linejoin="round"/>
  <line x1="14" y1="11" x2="20" y2="11" stroke="#94a3b8" stroke-width="1" stroke-linecap="round"/>
  
  <!-- Item 2 - completed -->
  <rect x="10" y="14" width="2" height="2" rx="1" fill="#10b981"/>
  <path d="M10.5 15.5L11 16L12.5 14.5" stroke="white" stroke-width="1.5" fill="none" stroke-linecap="round" stroke-linejoin="round"/>
  <line x1="14" y1="15" x2="20" y2="15" stroke="#94a3b8" stroke-width="1" stroke-linecap="round"/>
  
  <!-- Item 3 - active with star -->
  <rect x="10" y="18" width="2" height="2" rx="1" fill="none" stroke="#3b82f6" stroke-width="1"/>
  <line x1="14" y1="19" x2="19" y2="19" stroke="#1e293b" stroke-width="1" stroke-linecap="round"/>
  <polygon points="21.5,17.5 22,18.5 21.5,19.5 20.5,19.5 20,18.5 20.5,17.5" fill="#f59e0b"/>
  
  <!-- Item 4 - active -->
  <rect x="10" y="22" width="2" height="2" rx="1" fill="none" stroke="#3b82f6" stroke-width="1"/>
  <line x1="14" y1="23" x2="20" y2="23" stroke="#1e293b" stroke-width="1" stroke-linecap="round"/>
</svg>